<?xml version="1.0" encoding="utf-8" standalone="no"?>
<!DOCTYPE svg PUBLIC "-//W3C//DTD SVG 1.1//EN"
  "http://www.w3.org/Graphics/SVG/1.1/DTD/svg11.dtd">
<svg xmlns:xlink="http://www.w3.org/1999/xlink" width="738.42625pt" height="378.260252pt" viewBox="0 0 738.42625 378.260252" xmlns="http://www.w3.org/2000/svg" version="1.1">
 <metadata>
  <rdf:RDF xmlns:dc="http://purl.org/dc/elements/1.1/" xmlns:cc="http://creativecommons.org/ns#" xmlns:rdf="http://www.w3.org/1999/02/22-rdf-syntax-ns#">
   <cc:Work>
    <dc:type rdf:resource="http://purl.org/dc/dcmitype/StillImage"/>
    <dc:date>2026-02-25T12:55:58.904664</dc:date>
    <dc:format>image/svg+xml</dc:format>
    <dc:creator>
     <cc:Agent>
      <dc:title>Matplotlib v3.9.4, https://matplotlib.org/</dc:title>
     </cc:Agent>
    </dc:creator>
   </cc:Work>
  </rdf:RDF>
 </metadata>
 <defs>
  <style type="text/css">*{stroke-linejoin: round; stroke-linecap: butt}</style>
 </defs>
 <g id="figure_1">
  <g id="patch_1">
   <path d="M 0 378.260252 
L 738.42625 378.260252 
L 738.42625 0 
L 0 0 
z
" style="fill: #ffffff"/>
  </g>
  <g id="axes_1">
   <g id="patch_2">
    <path d="M 61.62625 317.597812 
L 731.22625 317.597812 
L 731.22625 23.837812 
L 61.62625 23.837812 
z
" style="fill: #ffffff"/>
   </g>
   <g id="matplotlib.axis_1">
    <g id="xtick_1">
     <g id="line2d_1">
      <path d="M 79.765093 317.597812 
L 79.765093 23.837812 
" clip-path="url(#pf9739d64fd)" style="fill: none; stroke-dasharray: 2.96,1.28; stroke-dashoffset: 0; stroke: #b0b0b0; stroke-opacity: 0.3; stroke-width: 0.8"/>
     </g>
     <g id="line2d_2">
      <defs>
       <path id="mecb8a6c4b5" d="M 0 0 
L 0 3.5 
" style="stroke: #000000; stroke-width: 0.8"/>
      </defs>
      <g>
       <use xlink:href="#mecb8a6c4b5" x="79.765093" y="317.597812" style="stroke: #000000; stroke-width: 0.8"/>
      </g>
     </g>
     <g id="text_1">
      <!-- 15-04-25 -->
      <g transform="translate(39.810939 353.64544) rotate(-30) scale(0.1 -0.1)">
       <defs>
        <path id="DejaVuSerif-31" d="M 909 0 
L 909 331 
L 1722 331 
L 1722 4213 
L 781 3603 
L 781 4013 
L 1919 4750 
L 2350 4750 
L 2350 331 
L 3163 331 
L 3163 0 
L 909 0 
z
" transform="scale(0.015625)"/>
        <path id="DejaVuSerif-35" d="M 3219 4666 
L 3219 4153 
L 1081 4153 
L 1081 2816 
Q 1244 2928 1461 2984 
Q 1678 3041 1947 3041 
Q 2703 3041 3140 2622 
Q 3578 2203 3578 1478 
Q 3578 738 3136 323 
Q 2694 -91 1894 -91 
Q 1572 -91 1234 -12 
Q 897 66 544 225 
L 544 1131 
L 897 1131 
Q 925 688 1179 453 
Q 1434 219 1894 219 
Q 2388 219 2653 544 
Q 2919 869 2919 1478 
Q 2919 2084 2655 2407 
Q 2391 2731 1894 2731 
Q 1613 2731 1398 2631 
Q 1184 2531 1019 2322 
L 750 2322 
L 750 4666 
L 3219 4666 
z
" transform="scale(0.015625)"/>
        <path id="DejaVuSerif-2d" d="M 281 1959 
L 1881 1959 
L 1881 1472 
L 281 1472 
L 281 1959 
z
" transform="scale(0.015625)"/>
        <path id="DejaVuSerif-30" d="M 2034 219 
Q 2513 219 2750 744 
Q 2988 1269 2988 2328 
Q 2988 3391 2750 3916 
Q 2513 4441 2034 4441 
Q 1556 4441 1318 3916 
Q 1081 3391 1081 2328 
Q 1081 1269 1318 744 
Q 1556 219 2034 219 
z
M 2034 -91 
Q 1275 -91 848 546 
Q 422 1184 422 2328 
Q 422 3475 848 4112 
Q 1275 4750 2034 4750 
Q 2797 4750 3222 4112 
Q 3647 3475 3647 2328 
Q 3647 1184 3222 546 
Q 2797 -91 2034 -91 
z
" transform="scale(0.015625)"/>
        <path id="DejaVuSerif-34" d="M 2234 1581 
L 2234 4063 
L 641 1581 
L 2234 1581 
z
M 3609 0 
L 1484 0 
L 1484 331 
L 2234 331 
L 2234 1247 
L 197 1247 
L 197 1588 
L 2241 4750 
L 2859 4750 
L 2859 1581 
L 3750 1581 
L 3750 1247 
L 2859 1247 
L 2859 331 
L 3609 331 
L 3609 0 
z
" transform="scale(0.015625)"/>
        <path id="DejaVuSerif-32" d="M 819 3553 
L 469 3553 
L 469 4384 
Q 803 4563 1142 4656 
Q 1481 4750 1806 4750 
Q 2534 4750 2956 4397 
Q 3378 4044 3378 3438 
Q 3378 2753 2422 1800 
Q 2347 1728 2309 1691 
L 1131 513 
L 3078 513 
L 3078 1088 
L 3444 1088 
L 3444 0 
L 434 0 
L 434 341 
L 1850 1753 
Q 2319 2222 2519 2614 
Q 2719 3006 2719 3438 
Q 2719 3909 2473 4175 
Q 2228 4441 1797 4441 
Q 1350 4441 1106 4219 
Q 863 3997 819 3553 
z
" transform="scale(0.015625)"/>
       </defs>
       <use xlink:href="#DejaVuSerif-31"/>
       <use xlink:href="#DejaVuSerif-35" x="63.623047"/>
       <use xlink:href="#DejaVuSerif-2d" x="127.246094"/>
       <use xlink:href="#DejaVuSerif-30" x="161.035156"/>
       <use xlink:href="#DejaVuSerif-34" x="224.658203"/>
       <use xlink:href="#DejaVuSerif-2d" x="288.28125"/>
       <use xlink:href="#DejaVuSerif-32" x="322.070312"/>
       <use xlink:href="#DejaVuSerif-35" x="385.693359"/>
      </g>
     </g>
    </g>
    <g id="xtick_2">
     <g id="line2d_3">
      <path d="M 171.996498 317.597812 
L 171.996498 23.837812 
" clip-path="url(#pf9739d64fd)" style="fill: none; stroke-dasharray: 2.96,1.28; stroke-dashoffset: 0; stroke: #b0b0b0; stroke-opacity: 0.3; stroke-width: 0.8"/>
     </g>
     <g id="line2d_4">
      <g>
       <use xlink:href="#mecb8a6c4b5" x="171.996498" y="317.597812" style="stroke: #000000; stroke-width: 0.8"/>
      </g>
     </g>
     <g id="text_2">
      <!-- 15-04-25 -->
      <g transform="translate(132.042344 353.64544) rotate(-30) scale(0.1 -0.1)">
       <use xlink:href="#DejaVuSerif-31"/>
       <use xlink:href="#DejaVuSerif-35" x="63.623047"/>
       <use xlink:href="#DejaVuSerif-2d" x="127.246094"/>
       <use xlink:href="#DejaVuSerif-30" x="161.035156"/>
       <use xlink:href="#DejaVuSerif-34" x="224.658203"/>
       <use xlink:href="#DejaVuSerif-2d" x="288.28125"/>
       <use xlink:href="#DejaVuSerif-32" x="322.070312"/>
       <use xlink:href="#DejaVuSerif-35" x="385.693359"/>
      </g>
     </g>
    </g>
    <g id="xtick_3">
     <g id="line2d_5">
      <path d="M 264.227903 317.597812 
L 264.227903 23.837812 
" clip-path="url(#pf9739d64fd)" style="fill: none; stroke-dasharray: 2.96,1.28; stroke-dashoffset: 0; stroke: #b0b0b0; stroke-opacity: 0.3; stroke-width: 0.8"/>
     </g>
     <g id="line2d_6">
      <g>
       <use xlink:href="#mecb8a6c4b5" x="264.227903" y="317.597812" style="stroke: #000000; stroke-width: 0.8"/>
      </g>
     </g>
     <g id="text_3">
      <!-- 15-04-25 -->
      <g transform="translate(224.273749 353.64544) rotate(-30) scale(0.1 -0.1)">
       <use xlink:href="#DejaVuSerif-31"/>
       <use xlink:href="#DejaVuSerif-35" x="63.623047"/>
       <use xlink:href="#DejaVuSerif-2d" x="127.246094"/>
       <use xlink:href="#DejaVuSerif-30" x="161.035156"/>
       <use xlink:href="#DejaVuSerif-34" x="224.658203"/>
       <use xlink:href="#DejaVuSerif-2d" x="288.28125"/>
       <use xlink:href="#DejaVuSerif-32" x="322.070312"/>
       <use xlink:href="#DejaVuSerif-35" x="385.693359"/>
      </g>
     </g>
    </g>
    <g id="xtick_4">
     <g id="line2d_7">
      <path d="M 356.459308 317.597812 
L 356.459308 23.837812 
" clip-path="url(#pf9739d64fd)" style="fill: none; stroke-dasharray: 2.96,1.28; stroke-dashoffset: 0; stroke: #b0b0b0; stroke-opacity: 0.3; stroke-width: 0.8"/>
     </g>
     <g id="line2d_8">
      <g>
       <use xlink:href="#mecb8a6c4b5" x="356.459308" y="317.597812" style="stroke: #000000; stroke-width: 0.8"/>
      </g>
     </g>
     <g id="text_4">
      <!-- 15-04-25 -->
      <g transform="translate(316.505154 353.64544) rotate(-30) scale(0.1 -0.1)">
       <use xlink:href="#DejaVuSerif-31"/>
       <use xlink:href="#DejaVuSerif-35" x="63.623047"/>
       <use xlink:href="#DejaVuSerif-2d" x="127.246094"/>
       <use xlink:href="#DejaVuSerif-30" x="161.035156"/>
       <use xlink:href="#DejaVuSerif-34" x="224.658203"/>
       <use xlink:href="#DejaVuSerif-2d" x="288.28125"/>
       <use xlink:href="#DejaVuSerif-32" x="322.070312"/>
       <use xlink:href="#DejaVuSerif-35" x="385.693359"/>
      </g>
     </g>
    </g>
    <g id="xtick_5">
     <g id="line2d_9">
      <path d="M 448.690713 317.597812 
L 448.690713 23.837812 
" clip-path="url(#pf9739d64fd)" style="fill: none; stroke-dasharray: 2.96,1.28; stroke-dashoffset: 0; stroke: #b0b0b0; stroke-opacity: 0.3; stroke-width: 0.8"/>
     </g>
     <g id="line2d_10">
      <g>
       <use xlink:href="#mecb8a6c4b5" x="448.690713" y="317.597812" style="stroke: #000000; stroke-width: 0.8"/>
      </g>
     </g>
     <g id="text_5">
      <!-- 15-04-25 -->
      <g transform="translate(408.736559 353.64544) rotate(-30) scale(0.1 -0.1)">
       <use xlink:href="#DejaVuSerif-31"/>
       <use xlink:href="#DejaVuSerif-35" x="63.623047"/>
       <use xlink:href="#DejaVuSerif-2d" x="127.246094"/>
       <use xlink:href="#DejaVuSerif-30" x="161.035156"/>
       <use xlink:href="#DejaVuSerif-34" x="224.658203"/>
       <use xlink:href="#DejaVuSerif-2d" x="288.28125"/>
       <use xlink:href="#DejaVuSerif-32" x="322.070312"/>
       <use xlink:href="#DejaVuSerif-35" x="385.693359"/>
      </g>
     </g>
    </g>
    <g id="xtick_6">
     <g id="line2d_11">
      <path d="M 540.922118 317.597812 
L 540.922118 23.837812 
" clip-path="url(#pf9739d64fd)" style="fill: none; stroke-dasharray: 2.96,1.28; stroke-dashoffset: 0; stroke: #b0b0b0; stroke-opacity: 0.3; stroke-width: 0.8"/>
     </g>
     <g id="line2d_12">
      <g>
       <use xlink:href="#mecb8a6c4b5" x="540.922118" y="317.597812" style="stroke: #000000; stroke-width: 0.8"/>
      </g>
     </g>
     <g id="text_6">
      <!-- 15-04-25 -->
      <g transform="translate(500.967964 353.64544) rotate(-30) scale(0.1 -0.1)">
       <use xlink:href="#DejaVuSerif-31"/>
       <use xlink:href="#DejaVuSerif-35" x="63.623047"/>
       <use xlink:href="#DejaVuSerif-2d" x="127.246094"/>
       <use xlink:href="#DejaVuSerif-30" x="161.035156"/>
       <use xlink:href="#DejaVuSerif-34" x="224.658203"/>
       <use xlink:href="#DejaVuSerif-2d" x="288.28125"/>
       <use xlink:href="#DejaVuSerif-32" x="322.070312"/>
       <use xlink:href="#DejaVuSerif-35" x="385.693359"/>
      </g>
     </g>
    </g>
    <g id="xtick_7">
     <g id="line2d_13">
      <path d="M 633.153523 317.597812 
L 633.153523 23.837812 
" clip-path="url(#pf9739d64fd)" style="fill: none; stroke-dasharray: 2.96,1.28; stroke-dashoffset: 0; stroke: #b0b0b0; stroke-opacity: 0.3; stroke-width: 0.8"/>
     </g>
     <g id="line2d_14">
      <g>
       <use xlink:href="#mecb8a6c4b5" x="633.153523" y="317.597812" style="stroke: #000000; stroke-width: 0.8"/>
      </g>
     </g>
     <g id="text_7">
      <!-- 15-04-25 -->
      <g transform="translate(593.199369 353.64544) rotate(-30) scale(0.1 -0.1)">
       <use xlink:href="#DejaVuSerif-31"/>
       <use xlink:href="#DejaVuSerif-35" x="63.623047"/>
       <use xlink:href="#DejaVuSerif-2d" x="127.246094"/>
       <use xlink:href="#DejaVuSerif-30" x="161.035156"/>
       <use xlink:href="#DejaVuSerif-34" x="224.658203"/>
       <use xlink:href="#DejaVuSerif-2d" x="288.28125"/>
       <use xlink:href="#DejaVuSerif-32" x="322.070312"/>
       <use xlink:href="#DejaVuSerif-35" x="385.693359"/>
      </g>
     </g>
    </g>
    <g id="xtick_8">
     <g id="line2d_15">
      <path d="M 725.384928 317.597812 
L 725.384928 23.837812 
" clip-path="url(#pf9739d64fd)" style="fill: none; stroke-dasharray: 2.96,1.28; stroke-dashoffset: 0; stroke: #b0b0b0; stroke-opacity: 0.3; stroke-width: 0.8"/>
     </g>
     <g id="line2d_16">
      <g>
       <use xlink:href="#mecb8a6c4b5" x="725.384928" y="317.597812" style="stroke: #000000; stroke-width: 0.8"/>
      </g>
     </g>
     <g id="text_8">
      <!-- 15-04-25 -->
      <g transform="translate(685.430774 353.64544) rotate(-30) scale(0.1 -0.1)">
       <use xlink:href="#DejaVuSerif-31"/>
       <use xlink:href="#DejaVuSerif-35" x="63.623047"/>
       <use xlink:href="#DejaVuSerif-2d" x="127.246094"/>
       <use xlink:href="#DejaVuSerif-30" x="161.035156"/>
       <use xlink:href="#DejaVuSerif-34" x="224.658203"/>
       <use xlink:href="#DejaVuSerif-2d" x="288.28125"/>
       <use xlink:href="#DejaVuSerif-32" x="322.070312"/>
       <use xlink:href="#DejaVuSerif-35" x="385.693359"/>
      </g>
     </g>
    </g>
    <g id="text_9">
     <!-- Fecha -->
     <g transform="translate(378.239688 368.564627) scale(0.12 -0.12)">
      <defs>
       <path id="DejaVuSerif-46" d="M 353 0 
L 353 331 
L 947 331 
L 947 4331 
L 353 4331 
L 353 4666 
L 4172 4666 
L 4172 3628 
L 3788 3628 
L 3788 4281 
L 1581 4281 
L 1581 2719 
L 3175 2719 
L 3175 3303 
L 3559 3303 
L 3559 1753 
L 3175 1753 
L 3175 2338 
L 1581 2338 
L 1581 331 
L 2328 331 
L 2328 0 
L 353 0 
z
" transform="scale(0.015625)"/>
       <path id="DejaVuSerif-65" d="M 3469 1600 
L 991 1600 
L 991 1575 
Q 991 903 1244 561 
Q 1497 219 1991 219 
Q 2369 219 2611 417 
Q 2853 616 2950 1006 
L 3413 1006 
Q 3275 459 2904 184 
Q 2534 -91 1931 -91 
Q 1203 -91 761 389 
Q 319 869 319 1663 
Q 319 2450 753 2931 
Q 1188 3413 1894 3413 
Q 2647 3413 3050 2948 
Q 3453 2484 3469 1600 
z
M 2791 1931 
Q 2772 2513 2545 2808 
Q 2319 3103 1894 3103 
Q 1497 3103 1269 2806 
Q 1041 2509 991 1931 
L 2791 1931 
z
" transform="scale(0.015625)"/>
       <path id="DejaVuSerif-63" d="M 3291 997 
Q 3169 466 2822 187 
Q 2475 -91 1925 -91 
Q 1200 -91 759 389 
Q 319 869 319 1663 
Q 319 2459 759 2936 
Q 1200 3413 1925 3413 
Q 2241 3413 2553 3339 
Q 2866 3266 3181 3116 
L 3181 2266 
L 2847 2266 
Q 2781 2703 2561 2903 
Q 2341 3103 1931 3103 
Q 1466 3103 1228 2742 
Q 991 2381 991 1663 
Q 991 944 1227 581 
Q 1463 219 1931 219 
Q 2303 219 2525 412 
Q 2747 606 2828 997 
L 3291 997 
z
" transform="scale(0.015625)"/>
       <path id="DejaVuSerif-68" d="M 263 0 
L 263 331 
L 781 331 
L 781 4531 
L 231 4531 
L 231 4863 
L 1356 4863 
L 1356 2731 
Q 1516 3069 1770 3241 
Q 2025 3413 2363 3413 
Q 2913 3413 3172 3097 
Q 3431 2781 3431 2113 
L 3431 331 
L 3944 331 
L 3944 0 
L 2356 0 
L 2356 331 
L 2853 331 
L 2853 1931 
Q 2853 2541 2704 2764 
Q 2556 2988 2175 2988 
Q 1775 2988 1565 2697 
Q 1356 2406 1356 1850 
L 1356 331 
L 1856 331 
L 1856 0 
L 263 0 
z
" transform="scale(0.015625)"/>
       <path id="DejaVuSerif-61" d="M 2547 1044 
L 2547 1747 
L 1806 1747 
Q 1378 1747 1168 1562 
Q 959 1378 959 997 
Q 959 650 1171 447 
Q 1384 244 1747 244 
Q 2106 244 2326 466 
Q 2547 688 2547 1044 
z
M 3122 2075 
L 3122 331 
L 3634 331 
L 3634 0 
L 2547 0 
L 2547 359 
Q 2356 128 2106 18 
Q 1856 -91 1522 -91 
Q 969 -91 644 203 
Q 319 497 319 997 
Q 319 1513 691 1797 
Q 1063 2081 1741 2081 
L 2547 2081 
L 2547 2309 
Q 2547 2688 2317 2895 
Q 2088 3103 1672 3103 
Q 1328 3103 1125 2947 
Q 922 2791 872 2484 
L 575 2484 
L 575 3156 
Q 875 3284 1158 3348 
Q 1441 3413 1709 3413 
Q 2400 3413 2761 3070 
Q 3122 2728 3122 2075 
z
" transform="scale(0.015625)"/>
      </defs>
      <use xlink:href="#DejaVuSerif-46"/>
      <use xlink:href="#DejaVuSerif-65" x="63.884766"/>
      <use xlink:href="#DejaVuSerif-63" x="123.064453"/>
      <use xlink:href="#DejaVuSerif-68" x="179.070312"/>
      <use xlink:href="#DejaVuSerif-61" x="243.474609"/>
     </g>
    </g>
   </g>
   <g id="matplotlib.axis_2">
    <g id="ytick_1">
     <g id="line2d_17">
      <path d="M 61.62625 312.463963 
L 731.22625 312.463963 
" clip-path="url(#pf9739d64fd)" style="fill: none; stroke-dasharray: 2.96,1.28; stroke-dashoffset: 0; stroke: #b0b0b0; stroke-opacity: 0.3; stroke-width: 0.8"/>
     </g>
     <g id="line2d_18">
      <defs>
       <path id="ma15e8e6fe5" d="M 0 0 
L -3.5 0 
" style="stroke: #000000; stroke-width: 0.8"/>
      </defs>
      <g>
       <use xlink:href="#ma15e8e6fe5" x="61.62625" y="312.463963" style="stroke: #000000; stroke-width: 0.8"/>
      </g>
     </g>
     <g id="text_10">
      <!-- 85400 -->
      <g transform="translate(22.81375 316.263182) scale(0.1 -0.1)">
       <defs>
        <path id="DejaVuSerif-38" d="M 2981 1275 
Q 2981 1775 2732 2051 
Q 2484 2328 2034 2328 
Q 1584 2328 1336 2051 
Q 1088 1775 1088 1275 
Q 1088 772 1336 495 
Q 1584 219 2034 219 
Q 2484 219 2732 495 
Q 2981 772 2981 1275 
z
M 2853 3541 
Q 2853 3966 2637 4203 
Q 2422 4441 2034 4441 
Q 1650 4441 1433 4203 
Q 1216 3966 1216 3541 
Q 1216 3113 1433 2875 
Q 1650 2638 2034 2638 
Q 2422 2638 2637 2875 
Q 2853 3113 2853 3541 
z
M 2516 2484 
Q 3047 2413 3344 2092 
Q 3641 1772 3641 1275 
Q 3641 619 3225 264 
Q 2809 -91 2034 -91 
Q 1263 -91 845 264 
Q 428 619 428 1275 
Q 428 1772 725 2092 
Q 1022 2413 1556 2484 
Q 1084 2569 832 2842 
Q 581 3116 581 3541 
Q 581 4103 968 4426 
Q 1356 4750 2034 4750 
Q 2713 4750 3100 4426 
Q 3488 4103 3488 3541 
Q 3488 3116 3236 2842 
Q 2984 2569 2516 2484 
z
" transform="scale(0.015625)"/>
       </defs>
       <use xlink:href="#DejaVuSerif-38"/>
       <use xlink:href="#DejaVuSerif-35" x="63.623047"/>
       <use xlink:href="#DejaVuSerif-34" x="127.246094"/>
       <use xlink:href="#DejaVuSerif-30" x="190.869141"/>
       <use xlink:href="#DejaVuSerif-30" x="254.492188"/>
      </g>
     </g>
    </g>
    <g id="ytick_2">
     <g id="line2d_19">
      <path d="M 61.62625 273.139188 
L 731.22625 273.139188 
" clip-path="url(#pf9739d64fd)" style="fill: none; stroke-dasharray: 2.96,1.28; stroke-dashoffset: 0; stroke: #b0b0b0; stroke-opacity: 0.3; stroke-width: 0.8"/>
     </g>
     <g id="line2d_20">
      <g>
       <use xlink:href="#ma15e8e6fe5" x="61.62625" y="273.139188" style="stroke: #000000; stroke-width: 0.8"/>
      </g>
     </g>
     <g id="text_11">
      <!-- 85450 -->
      <g transform="translate(22.81375 276.938407) scale(0.1 -0.1)">
       <use xlink:href="#DejaVuSerif-38"/>
       <use xlink:href="#DejaVuSerif-35" x="63.623047"/>
       <use xlink:href="#DejaVuSerif-34" x="127.246094"/>
       <use xlink:href="#DejaVuSerif-35" x="190.869141"/>
       <use xlink:href="#DejaVuSerif-30" x="254.492188"/>
      </g>
     </g>
    </g>
    <g id="ytick_3">
     <g id="line2d_21">
      <path d="M 61.62625 233.814414 
L 731.22625 233.814414 
" clip-path="url(#pf9739d64fd)" style="fill: none; stroke-dasharray: 2.96,1.28; stroke-dashoffset: 0; stroke: #b0b0b0; stroke-opacity: 0.3; stroke-width: 0.8"/>
     </g>
     <g id="line2d_22">
      <g>
       <use xlink:href="#ma15e8e6fe5" x="61.62625" y="233.814414" style="stroke: #000000; stroke-width: 0.8"/>
      </g>
     </g>
     <g id="text_12">
      <!-- 85500 -->
      <g transform="translate(22.81375 237.613632) scale(0.1 -0.1)">
       <use xlink:href="#DejaVuSerif-38"/>
       <use xlink:href="#DejaVuSerif-35" x="63.623047"/>
       <use xlink:href="#DejaVuSerif-35" x="127.246094"/>
       <use xlink:href="#DejaVuSerif-30" x="190.869141"/>
       <use xlink:href="#DejaVuSerif-30" x="254.492188"/>
      </g>
     </g>
    </g>
    <g id="ytick_4">
     <g id="line2d_23">
      <path d="M 61.62625 194.489639 
L 731.22625 194.489639 
" clip-path="url(#pf9739d64fd)" style="fill: none; stroke-dasharray: 2.96,1.28; stroke-dashoffset: 0; stroke: #b0b0b0; stroke-opacity: 0.3; stroke-width: 0.8"/>
     </g>
     <g id="line2d_24">
      <g>
       <use xlink:href="#ma15e8e6fe5" x="61.62625" y="194.489639" style="stroke: #000000; stroke-width: 0.8"/>
      </g>
     </g>
     <g id="text_13">
      <!-- 85550 -->
      <g transform="translate(22.81375 198.288858) scale(0.1 -0.1)">
       <use xlink:href="#DejaVuSerif-38"/>
       <use xlink:href="#DejaVuSerif-35" x="63.623047"/>
       <use xlink:href="#DejaVuSerif-35" x="127.246094"/>
       <use xlink:href="#DejaVuSerif-35" x="190.869141"/>
       <use xlink:href="#DejaVuSerif-30" x="254.492188"/>
      </g>
     </g>
    </g>
    <g id="ytick_5">
     <g id="line2d_25">
      <path d="M 61.62625 155.164864 
L 731.22625 155.164864 
" clip-path="url(#pf9739d64fd)" style="fill: none; stroke-dasharray: 2.96,1.28; stroke-dashoffset: 0; stroke: #b0b0b0; stroke-opacity: 0.3; stroke-width: 0.8"/>
     </g>
     <g id="line2d_26">
      <g>
       <use xlink:href="#ma15e8e6fe5" x="61.62625" y="155.164864" style="stroke: #000000; stroke-width: 0.8"/>
      </g>
     </g>
     <g id="text_14">
      <!-- 85600 -->
      <g transform="translate(22.81375 158.964083) scale(0.1 -0.1)">
       <defs>
        <path id="DejaVuSerif-36" d="M 2094 219 
Q 2534 219 2771 542 
Q 3009 866 3009 1472 
Q 3009 2078 2771 2401 
Q 2534 2725 2094 2725 
Q 1647 2725 1412 2412 
Q 1178 2100 1178 1509 
Q 1178 888 1415 553 
Q 1653 219 2094 219 
z
M 1075 2569 
Q 1288 2803 1556 2918 
Q 1825 3034 2163 3034 
Q 2859 3034 3264 2615 
Q 3669 2197 3669 1472 
Q 3669 763 3233 336 
Q 2797 -91 2069 -91 
Q 1278 -91 853 498 
Q 428 1088 428 2181 
Q 428 3406 931 4078 
Q 1434 4750 2350 4750 
Q 2597 4750 2869 4703 
Q 3141 4656 3425 4563 
L 3425 3794 
L 3072 3794 
Q 3034 4109 2831 4275 
Q 2628 4441 2284 4441 
Q 1678 4441 1381 3981 
Q 1084 3522 1075 2569 
z
" transform="scale(0.015625)"/>
       </defs>
       <use xlink:href="#DejaVuSerif-38"/>
       <use xlink:href="#DejaVuSerif-35" x="63.623047"/>
       <use xlink:href="#DejaVuSerif-36" x="127.246094"/>
       <use xlink:href="#DejaVuSerif-30" x="190.869141"/>
       <use xlink:href="#DejaVuSerif-30" x="254.492188"/>
      </g>
     </g>
    </g>
    <g id="ytick_6">
     <g id="line2d_27">
      <path d="M 61.62625 115.840089 
L 731.22625 115.840089 
" clip-path="url(#pf9739d64fd)" style="fill: none; stroke-dasharray: 2.96,1.28; stroke-dashoffset: 0; stroke: #b0b0b0; stroke-opacity: 0.3; stroke-width: 0.8"/>
     </g>
     <g id="line2d_28">
      <g>
       <use xlink:href="#ma15e8e6fe5" x="61.62625" y="115.840089" style="stroke: #000000; stroke-width: 0.8"/>
      </g>
     </g>
     <g id="text_15">
      <!-- 85650 -->
      <g transform="translate(22.81375 119.639308) scale(0.1 -0.1)">
       <use xlink:href="#DejaVuSerif-38"/>
       <use xlink:href="#DejaVuSerif-35" x="63.623047"/>
       <use xlink:href="#DejaVuSerif-36" x="127.246094"/>
       <use xlink:href="#DejaVuSerif-35" x="190.869141"/>
       <use xlink:href="#DejaVuSerif-30" x="254.492188"/>
      </g>
     </g>
    </g>
    <g id="ytick_7">
     <g id="line2d_29">
      <path d="M 61.62625 76.515315 
L 731.22625 76.515315 
" clip-path="url(#pf9739d64fd)" style="fill: none; stroke-dasharray: 2.96,1.28; stroke-dashoffset: 0; stroke: #b0b0b0; stroke-opacity: 0.3; stroke-width: 0.8"/>
     </g>
     <g id="line2d_30">
      <g>
       <use xlink:href="#ma15e8e6fe5" x="61.62625" y="76.515315" style="stroke: #000000; stroke-width: 0.8"/>
      </g>
     </g>
     <g id="text_16">
      <!-- 85700 -->
      <g transform="translate(22.81375 80.314533) scale(0.1 -0.1)">
       <defs>
        <path id="DejaVuSerif-37" d="M 3609 4347 
L 1784 0 
L 1319 0 
L 3059 4153 
L 903 4153 
L 903 3578 
L 538 3578 
L 538 4666 
L 3609 4666 
L 3609 4347 
z
" transform="scale(0.015625)"/>
       </defs>
       <use xlink:href="#DejaVuSerif-38"/>
       <use xlink:href="#DejaVuSerif-35" x="63.623047"/>
       <use xlink:href="#DejaVuSerif-37" x="127.246094"/>
       <use xlink:href="#DejaVuSerif-30" x="190.869141"/>
       <use xlink:href="#DejaVuSerif-30" x="254.492188"/>
      </g>
     </g>
    </g>
    <g id="ytick_8">
     <g id="line2d_31">
      <path d="M 61.62625 37.19054 
L 731.22625 37.19054 
" clip-path="url(#pf9739d64fd)" style="fill: none; stroke-dasharray: 2.96,1.28; stroke-dashoffset: 0; stroke: #b0b0b0; stroke-opacity: 0.3; stroke-width: 0.8"/>
     </g>
     <g id="line2d_32">
      <g>
       <use xlink:href="#ma15e8e6fe5" x="61.62625" y="37.19054" style="stroke: #000000; stroke-width: 0.8"/>
      </g>
     </g>
     <g id="text_17">
      <!-- 85750 -->
      <g transform="translate(22.81375 40.989759) scale(0.1 -0.1)">
       <use xlink:href="#DejaVuSerif-38"/>
       <use xlink:href="#DejaVuSerif-35" x="63.623047"/>
       <use xlink:href="#DejaVuSerif-37" x="127.246094"/>
       <use xlink:href="#DejaVuSerif-35" x="190.869141"/>
       <use xlink:href="#DejaVuSerif-30" x="254.492188"/>
      </g>
     </g>
    </g>
    <g id="text_18">
     <!-- Price (USD) -->
     <g transform="translate(16.318125 207.01875) rotate(-90) scale(0.12 -0.12)">
      <defs>
       <path id="DejaVuSerif-50" d="M 1581 2375 
L 2406 2375 
Q 2872 2375 3115 2626 
Q 3359 2878 3359 3353 
Q 3359 3831 3115 4081 
Q 2872 4331 2406 4331 
L 1581 4331 
L 1581 2375 
z
M 353 0 
L 353 331 
L 947 331 
L 947 4331 
L 353 4331 
L 353 4666 
L 2559 4666 
Q 3259 4666 3668 4311 
Q 4078 3956 4078 3353 
Q 4078 2753 3668 2397 
Q 3259 2041 2559 2041 
L 1581 2041 
L 1581 331 
L 2303 331 
L 2303 0 
L 353 0 
z
" transform="scale(0.015625)"/>
       <path id="DejaVuSerif-72" d="M 3059 3328 
L 3059 2497 
L 2728 2497 
Q 2713 2744 2591 2866 
Q 2469 2988 2234 2988 
Q 1809 2988 1582 2694 
Q 1356 2400 1356 1850 
L 1356 331 
L 2022 331 
L 2022 0 
L 263 0 
L 263 331 
L 781 331 
L 781 2994 
L 231 2994 
L 231 3322 
L 1356 3322 
L 1356 2731 
Q 1525 3078 1790 3245 
Q 2056 3413 2438 3413 
Q 2578 3413 2733 3391 
Q 2888 3369 3059 3328 
z
" transform="scale(0.015625)"/>
       <path id="DejaVuSerif-69" d="M 622 4353 
Q 622 4497 726 4603 
Q 831 4709 978 4709 
Q 1122 4709 1226 4603 
Q 1331 4497 1331 4353 
Q 1331 4206 1228 4103 
Q 1125 4000 978 4000 
Q 831 4000 726 4103 
Q 622 4206 622 4353 
z
M 1356 331 
L 1900 331 
L 1900 0 
L 231 0 
L 231 331 
L 781 331 
L 781 2988 
L 231 2988 
L 231 3322 
L 1356 3322 
L 1356 331 
z
" transform="scale(0.015625)"/>
       <path id="DejaVuSerif-20" transform="scale(0.015625)"/>
       <path id="DejaVuSerif-28" d="M 2041 -997 
Q 1281 -656 893 83 
Q 506 822 506 1931 
Q 506 3044 893 3783 
Q 1281 4522 2041 4863 
L 2041 4556 
Q 1559 4225 1350 3623 
Q 1141 3022 1141 1931 
Q 1141 844 1350 242 
Q 1559 -359 2041 -691 
L 2041 -997 
z
" transform="scale(0.015625)"/>
       <path id="DejaVuSerif-55" d="M 897 4331 
L 300 4331 
L 300 4666 
L 2125 4666 
L 2125 4331 
L 1528 4331 
L 1528 1919 
Q 1528 1025 1820 672 
Q 2113 319 2828 319 
Q 3544 319 3836 672 
Q 4128 1025 4128 1919 
L 4128 4331 
L 3531 4331 
L 3531 4666 
L 5106 4666 
L 5106 4331 
L 4513 4331 
L 4513 1856 
Q 4513 791 4103 350 
Q 3694 -91 2713 -91 
Q 1731 -91 1314 353 
Q 897 797 897 1856 
L 897 4331 
z
" transform="scale(0.015625)"/>
       <path id="DejaVuSerif-53" d="M 594 225 
L 594 1288 
L 953 1284 
Q 969 753 1261 498 
Q 1553 244 2150 244 
Q 2706 244 2998 464 
Q 3291 684 3291 1106 
Q 3291 1444 3114 1625 
Q 2938 1806 2369 1978 
L 1753 2163 
Q 1084 2366 811 2669 
Q 538 2972 538 3500 
Q 538 4094 959 4422 
Q 1381 4750 2144 4750 
Q 2469 4750 2856 4679 
Q 3244 4609 3681 4475 
L 3681 3481 
L 3328 3481 
Q 3275 3975 2998 4195 
Q 2722 4416 2156 4416 
Q 1663 4416 1405 4214 
Q 1147 4013 1147 3628 
Q 1147 3294 1340 3103 
Q 1534 2913 2163 2725 
L 2741 2553 
Q 3375 2363 3645 2067 
Q 3916 1772 3916 1275 
Q 3916 597 3481 253 
Q 3047 -91 2188 -91 
Q 1803 -91 1404 -12 
Q 1006 66 594 225 
z
" transform="scale(0.015625)"/>
       <path id="DejaVuSerif-44" d="M 1581 331 
L 2163 331 
Q 3072 331 3558 850 
Q 4044 1369 4044 2338 
Q 4044 3306 3559 3818 
Q 3075 4331 2163 4331 
L 1581 4331 
L 1581 331 
z
M 353 0 
L 353 331 
L 947 331 
L 947 4331 
L 353 4331 
L 353 4666 
L 2209 4666 
Q 3416 4666 4089 4050 
Q 4763 3434 4763 2338 
Q 4763 1238 4088 619 
Q 3413 0 2209 0 
L 353 0 
z
" transform="scale(0.015625)"/>
       <path id="DejaVuSerif-29" d="M 453 -997 
L 453 -691 
Q 934 -359 1145 242 
Q 1356 844 1356 1931 
Q 1356 3022 1145 3623 
Q 934 4225 453 4556 
L 453 4863 
Q 1216 4522 1603 3783 
Q 1991 3044 1991 1931 
Q 1991 822 1603 83 
Q 1216 -656 453 -997 
z
" transform="scale(0.015625)"/>
      </defs>
      <use xlink:href="#DejaVuSerif-50"/>
      <use xlink:href="#DejaVuSerif-72" x="67.285156"/>
      <use xlink:href="#DejaVuSerif-69" x="115.087891"/>
      <use xlink:href="#DejaVuSerif-63" x="147.070312"/>
      <use xlink:href="#DejaVuSerif-65" x="203.076172"/>
      <use xlink:href="#DejaVuSerif-20" x="262.255859"/>
      <use xlink:href="#DejaVuSerif-28" x="294.042969"/>
      <use xlink:href="#DejaVuSerif-55" x="333.056641"/>
      <use xlink:href="#DejaVuSerif-53" x="417.333984"/>
      <use xlink:href="#DejaVuSerif-44" x="485.839844"/>
      <use xlink:href="#DejaVuSerif-29" x="566.015625"/>
     </g>
    </g>
   </g>
   <g id="line2d_33">
    <path d="M 92.062614 245.934309 
L 98.211374 183.77757 
L 104.360134 177.186738 
L 110.508895 144.735934 
L 116.657655 115.847954 
L 122.806415 107.880755 
L 128.955176 80.377007 
L 135.103936 102.446071 
L 141.252696 111.121116 
L 147.401457 102.422476 
L 153.550217 127.157759 
L 159.698977 133.198045 
L 165.847738 119.992786 
L 171.996498 102.815724 
L 178.145258 121.384883 
L 184.294019 169.203809 
L 190.442779 160.709657 
L 196.591539 124.758948 
L 202.7403 126.064531 
L 208.88906 144.680879 
L 215.03782 176.392377 
L 221.186581 224.274223 
L 227.335341 213.145312 
L 233.484101 247.971333 
L 239.632862 237.204209 
L 245.781622 254.900358 
L 251.930382 245.061299 
L 258.079143 235.646948 
L 264.227903 258.982269 
L 270.376663 255.922802 
L 276.525424 266.052864 
L 282.674184 289.679189 
L 288.822944 304.245085 
L 294.971705 259.131704 
L 301.120465 273.139188 
L 307.269225 245.79274 
L 313.417986 248.836478 
L 319.566746 227.585369 
L 325.715506 195.18962 
L 331.864267 219.099083 
L 338.013027 211.422887 
L 344.161787 182.220309 
L 350.310548 178.50805 
L 356.459308 190.557161 
L 362.608068 155.172729 
L 368.756829 136.108078 
L 374.905589 146.19095 
L 381.054349 168.12631 
L 387.20311 168.535288 
L 393.35187 190.942544 
L 399.50063 139.442819 
L 405.649391 168.527423 
L 411.798151 169.313918 
L 417.946911 177.973233 
L 424.095672 190.022344 
L 430.244432 161.684912 
L 436.393192 194.481774 
L 442.541952 204.391617 
L 448.690713 273.123458 
L 454.839473 274.720044 
L 460.988233 274.720044 
L 467.136994 268.042698 
L 473.285754 267.413501 
L 479.434514 287.870249 
L 485.583275 299.880035 
L 491.732035 270.103316 
L 497.880795 257.417143 
L 504.029556 228.214566 
L 510.178316 218.186748 
L 516.327076 185.696619 
L 522.475837 178.55524 
L 528.624597 175.291284 
L 534.773357 164.579215 
L 540.922118 191.335792 
L 547.070878 164.673595 
L 553.219638 150.233537 
L 559.368399 76.515315 
L 565.517159 89.641924 
L 571.665919 95.60356 
L 577.81468 106.960555 
L 583.96344 38.85791 
L 590.1122 68.65036 
L 596.260961 75.728819 
L 602.409721 95.66648 
L 608.558481 92.072195 
L 614.707242 58.622542 
L 620.856002 58.897815 
L 627.004762 75.154677 
L 633.153523 37.19054 
L 639.302283 60.77754 
L 645.451043 163.037684 
L 651.599804 138.499025 
L 657.748564 161.04785 
L 663.897324 150.949248 
L 670.046085 147.307774 
L 676.194845 193.695278 
L 682.343605 186.632549 
L 688.492366 204.226453 
L 694.641126 212.799254 
L 700.789886 210.471227 
" clip-path="url(#pf9739d64fd)" style="fill: none; stroke: #2e4053; stroke-width: 1.5; stroke-linecap: square"/>
    <defs>
     <path id="m596b9a6ec5" d="M 0 2 
C 0.530406 2 1.03916 1.789267 1.414214 1.414214 
C 1.789267 1.03916 2 0.530406 2 0 
C 2 -0.530406 1.789267 -1.03916 1.414214 -1.414214 
C 1.03916 -1.789267 0.530406 -2 0 -2 
C -0.530406 -2 -1.03916 -1.789267 -1.414214 -1.414214 
C -1.789267 -1.03916 -2 -0.530406 -2 0 
C -2 0.530406 -1.789267 1.03916 -1.414214 1.414214 
C -1.03916 1.789267 -0.530406 2 0 2 
z
" style="stroke: #2e4053"/>
    </defs>
    <g clip-path="url(#pf9739d64fd)">
     <use xlink:href="#m596b9a6ec5" x="92.062614" y="245.934309" style="fill: #2e4053; stroke: #2e4053"/>
     <use xlink:href="#m596b9a6ec5" x="98.211374" y="183.77757" style="fill: #2e4053; stroke: #2e4053"/>
     <use xlink:href="#m596b9a6ec5" x="104.360134" y="177.186738" style="fill: #2e4053; stroke: #2e4053"/>
     <use xlink:href="#m596b9a6ec5" x="110.508895" y="144.735934" style="fill: #2e4053; stroke: #2e4053"/>
     <use xlink:href="#m596b9a6ec5" x="116.657655" y="115.847954" style="fill: #2e4053; stroke: #2e4053"/>
     <use xlink:href="#m596b9a6ec5" x="122.806415" y="107.880755" style="fill: #2e4053; stroke: #2e4053"/>
     <use xlink:href="#m596b9a6ec5" x="128.955176" y="80.377007" style="fill: #2e4053; stroke: #2e4053"/>
     <use xlink:href="#m596b9a6ec5" x="135.103936" y="102.446071" style="fill: #2e4053; stroke: #2e4053"/>
     <use xlink:href="#m596b9a6ec5" x="141.252696" y="111.121116" style="fill: #2e4053; stroke: #2e4053"/>
     <use xlink:href="#m596b9a6ec5" x="147.401457" y="102.422476" style="fill: #2e4053; stroke: #2e4053"/>
     <use xlink:href="#m596b9a6ec5" x="153.550217" y="127.157759" style="fill: #2e4053; stroke: #2e4053"/>
     <use xlink:href="#m596b9a6ec5" x="159.698977" y="133.198045" style="fill: #2e4053; stroke: #2e4053"/>
     <use xlink:href="#m596b9a6ec5" x="165.847738" y="119.992786" style="fill: #2e4053; stroke: #2e4053"/>
     <use xlink:href="#m596b9a6ec5" x="171.996498" y="102.815724" style="fill: #2e4053; stroke: #2e4053"/>
     <use xlink:href="#m596b9a6ec5" x="178.145258" y="121.384883" style="fill: #2e4053; stroke: #2e4053"/>
     <use xlink:href="#m596b9a6ec5" x="184.294019" y="169.203809" style="fill: #2e4053; stroke: #2e4053"/>
     <use xlink:href="#m596b9a6ec5" x="190.442779" y="160.709657" style="fill: #2e4053; stroke: #2e4053"/>
     <use xlink:href="#m596b9a6ec5" x="196.591539" y="124.758948" style="fill: #2e4053; stroke: #2e4053"/>
     <use xlink:href="#m596b9a6ec5" x="202.7403" y="126.064531" style="fill: #2e4053; stroke: #2e4053"/>
     <use xlink:href="#m596b9a6ec5" x="208.88906" y="144.680879" style="fill: #2e4053; stroke: #2e4053"/>
     <use xlink:href="#m596b9a6ec5" x="215.03782" y="176.392377" style="fill: #2e4053; stroke: #2e4053"/>
     <use xlink:href="#m596b9a6ec5" x="221.186581" y="224.274223" style="fill: #2e4053; stroke: #2e4053"/>
     <use xlink:href="#m596b9a6ec5" x="227.335341" y="213.145312" style="fill: #2e4053; stroke: #2e4053"/>
     <use xlink:href="#m596b9a6ec5" x="233.484101" y="247.971333" style="fill: #2e4053; stroke: #2e4053"/>
     <use xlink:href="#m596b9a6ec5" x="239.632862" y="237.204209" style="fill: #2e4053; stroke: #2e4053"/>
     <use xlink:href="#m596b9a6ec5" x="245.781622" y="254.900358" style="fill: #2e4053; stroke: #2e4053"/>
     <use xlink:href="#m596b9a6ec5" x="251.930382" y="245.061299" style="fill: #2e4053; stroke: #2e4053"/>
     <use xlink:href="#m596b9a6ec5" x="258.079143" y="235.646948" style="fill: #2e4053; stroke: #2e4053"/>
     <use xlink:href="#m596b9a6ec5" x="264.227903" y="258.982269" style="fill: #2e4053; stroke: #2e4053"/>
     <use xlink:href="#m596b9a6ec5" x="270.376663" y="255.922802" style="fill: #2e4053; stroke: #2e4053"/>
     <use xlink:href="#m596b9a6ec5" x="276.525424" y="266.052864" style="fill: #2e4053; stroke: #2e4053"/>
     <use xlink:href="#m596b9a6ec5" x="282.674184" y="289.679189" style="fill: #2e4053; stroke: #2e4053"/>
     <use xlink:href="#m596b9a6ec5" x="288.822944" y="304.245085" style="fill: #2e4053; stroke: #2e4053"/>
     <use xlink:href="#m596b9a6ec5" x="294.971705" y="259.131704" style="fill: #2e4053; stroke: #2e4053"/>
     <use xlink:href="#m596b9a6ec5" x="301.120465" y="273.139188" style="fill: #2e4053; stroke: #2e4053"/>
     <use xlink:href="#m596b9a6ec5" x="307.269225" y="245.79274" style="fill: #2e4053; stroke: #2e4053"/>
     <use xlink:href="#m596b9a6ec5" x="313.417986" y="248.836478" style="fill: #2e4053; stroke: #2e4053"/>
     <use xlink:href="#m596b9a6ec5" x="319.566746" y="227.585369" style="fill: #2e4053; stroke: #2e4053"/>
     <use xlink:href="#m596b9a6ec5" x="325.715506" y="195.18962" style="fill: #2e4053; stroke: #2e4053"/>
     <use xlink:href="#m596b9a6ec5" x="331.864267" y="219.099083" style="fill: #2e4053; stroke: #2e4053"/>
     <use xlink:href="#m596b9a6ec5" x="338.013027" y="211.422887" style="fill: #2e4053; stroke: #2e4053"/>
     <use xlink:href="#m596b9a6ec5" x="344.161787" y="182.220309" style="fill: #2e4053; stroke: #2e4053"/>
     <use xlink:href="#m596b9a6ec5" x="350.310548" y="178.50805" style="fill: #2e4053; stroke: #2e4053"/>
     <use xlink:href="#m596b9a6ec5" x="356.459308" y="190.557161" style="fill: #2e4053; stroke: #2e4053"/>
     <use xlink:href="#m596b9a6ec5" x="362.608068" y="155.172729" style="fill: #2e4053; stroke: #2e4053"/>
     <use xlink:href="#m596b9a6ec5" x="368.756829" y="136.108078" style="fill: #2e4053; stroke: #2e4053"/>
     <use xlink:href="#m596b9a6ec5" x="374.905589" y="146.19095" style="fill: #2e4053; stroke: #2e4053"/>
     <use xlink:href="#m596b9a6ec5" x="381.054349" y="168.12631" style="fill: #2e4053; stroke: #2e4053"/>
     <use xlink:href="#m596b9a6ec5" x="387.20311" y="168.535288" style="fill: #2e4053; stroke: #2e4053"/>
     <use xlink:href="#m596b9a6ec5" x="393.35187" y="190.942544" style="fill: #2e4053; stroke: #2e4053"/>
     <use xlink:href="#m596b9a6ec5" x="399.50063" y="139.442819" style="fill: #2e4053; stroke: #2e4053"/>
     <use xlink:href="#m596b9a6ec5" x="405.649391" y="168.527423" style="fill: #2e4053; stroke: #2e4053"/>
     <use xlink:href="#m596b9a6ec5" x="411.798151" y="169.313918" style="fill: #2e4053; stroke: #2e4053"/>
     <use xlink:href="#m596b9a6ec5" x="417.946911" y="177.973233" style="fill: #2e4053; stroke: #2e4053"/>
     <use xlink:href="#m596b9a6ec5" x="424.095672" y="190.022344" style="fill: #2e4053; stroke: #2e4053"/>
     <use xlink:href="#m596b9a6ec5" x="430.244432" y="161.684912" style="fill: #2e4053; stroke: #2e4053"/>
     <use xlink:href="#m596b9a6ec5" x="436.393192" y="194.481774" style="fill: #2e4053; stroke: #2e4053"/>
     <use xlink:href="#m596b9a6ec5" x="442.541952" y="204.391617" style="fill: #2e4053; stroke: #2e4053"/>
     <use xlink:href="#m596b9a6ec5" x="448.690713" y="273.123458" style="fill: #2e4053; stroke: #2e4053"/>
     <use xlink:href="#m596b9a6ec5" x="454.839473" y="274.720044" style="fill: #2e4053; stroke: #2e4053"/>
     <use xlink:href="#m596b9a6ec5" x="460.988233" y="274.720044" style="fill: #2e4053; stroke: #2e4053"/>
     <use xlink:href="#m596b9a6ec5" x="467.136994" y="268.042698" style="fill: #2e4053; stroke: #2e4053"/>
     <use xlink:href="#m596b9a6ec5" x="473.285754" y="267.413501" style="fill: #2e4053; stroke: #2e4053"/>
     <use xlink:href="#m596b9a6ec5" x="479.434514" y="287.870249" style="fill: #2e4053; stroke: #2e4053"/>
     <use xlink:href="#m596b9a6ec5" x="485.583275" y="299.880035" style="fill: #2e4053; stroke: #2e4053"/>
     <use xlink:href="#m596b9a6ec5" x="491.732035" y="270.103316" style="fill: #2e4053; stroke: #2e4053"/>
     <use xlink:href="#m596b9a6ec5" x="497.880795" y="257.417143" style="fill: #2e4053; stroke: #2e4053"/>
     <use xlink:href="#m596b9a6ec5" x="504.029556" y="228.214566" style="fill: #2e4053; stroke: #2e4053"/>
     <use xlink:href="#m596b9a6ec5" x="510.178316" y="218.186748" style="fill: #2e4053; stroke: #2e4053"/>
     <use xlink:href="#m596b9a6ec5" x="516.327076" y="185.696619" style="fill: #2e4053; stroke: #2e4053"/>
     <use xlink:href="#m596b9a6ec5" x="522.475837" y="178.55524" style="fill: #2e4053; stroke: #2e4053"/>
     <use xlink:href="#m596b9a6ec5" x="528.624597" y="175.291284" style="fill: #2e4053; stroke: #2e4053"/>
     <use xlink:href="#m596b9a6ec5" x="534.773357" y="164.579215" style="fill: #2e4053; stroke: #2e4053"/>
     <use xlink:href="#m596b9a6ec5" x="540.922118" y="191.335792" style="fill: #2e4053; stroke: #2e4053"/>
     <use xlink:href="#m596b9a6ec5" x="547.070878" y="164.673595" style="fill: #2e4053; stroke: #2e4053"/>
     <use xlink:href="#m596b9a6ec5" x="553.219638" y="150.233537" style="fill: #2e4053; stroke: #2e4053"/>
     <use xlink:href="#m596b9a6ec5" x="559.368399" y="76.515315" style="fill: #2e4053; stroke: #2e4053"/>
     <use xlink:href="#m596b9a6ec5" x="565.517159" y="89.641924" style="fill: #2e4053; stroke: #2e4053"/>
     <use xlink:href="#m596b9a6ec5" x="571.665919" y="95.60356" style="fill: #2e4053; stroke: #2e4053"/>
     <use xlink:href="#m596b9a6ec5" x="577.81468" y="106.960555" style="fill: #2e4053; stroke: #2e4053"/>
     <use xlink:href="#m596b9a6ec5" x="583.96344" y="38.85791" style="fill: #2e4053; stroke: #2e4053"/>
     <use xlink:href="#m596b9a6ec5" x="590.1122" y="68.65036" style="fill: #2e4053; stroke: #2e4053"/>
     <use xlink:href="#m596b9a6ec5" x="596.260961" y="75.728819" style="fill: #2e4053; stroke: #2e4053"/>
     <use xlink:href="#m596b9a6ec5" x="602.409721" y="95.66648" style="fill: #2e4053; stroke: #2e4053"/>
     <use xlink:href="#m596b9a6ec5" x="608.558481" y="92.072195" style="fill: #2e4053; stroke: #2e4053"/>
     <use xlink:href="#m596b9a6ec5" x="614.707242" y="58.622542" style="fill: #2e4053; stroke: #2e4053"/>
     <use xlink:href="#m596b9a6ec5" x="620.856002" y="58.897815" style="fill: #2e4053; stroke: #2e4053"/>
     <use xlink:href="#m596b9a6ec5" x="627.004762" y="75.154677" style="fill: #2e4053; stroke: #2e4053"/>
     <use xlink:href="#m596b9a6ec5" x="633.153523" y="37.19054" style="fill: #2e4053; stroke: #2e4053"/>
     <use xlink:href="#m596b9a6ec5" x="639.302283" y="60.77754" style="fill: #2e4053; stroke: #2e4053"/>
     <use xlink:href="#m596b9a6ec5" x="645.451043" y="163.037684" style="fill: #2e4053; stroke: #2e4053"/>
     <use xlink:href="#m596b9a6ec5" x="651.599804" y="138.499025" style="fill: #2e4053; stroke: #2e4053"/>
     <use xlink:href="#m596b9a6ec5" x="657.748564" y="161.04785" style="fill: #2e4053; stroke: #2e4053"/>
     <use xlink:href="#m596b9a6ec5" x="663.897324" y="150.949248" style="fill: #2e4053; stroke: #2e4053"/>
     <use xlink:href="#m596b9a6ec5" x="670.046085" y="147.307774" style="fill: #2e4053; stroke: #2e4053"/>
     <use xlink:href="#m596b9a6ec5" x="676.194845" y="193.695278" style="fill: #2e4053; stroke: #2e4053"/>
     <use xlink:href="#m596b9a6ec5" x="682.343605" y="186.632549" style="fill: #2e4053; stroke: #2e4053"/>
     <use xlink:href="#m596b9a6ec5" x="688.492366" y="204.226453" style="fill: #2e4053; stroke: #2e4053"/>
     <use xlink:href="#m596b9a6ec5" x="694.641126" y="212.799254" style="fill: #2e4053; stroke: #2e4053"/>
     <use xlink:href="#m596b9a6ec5" x="700.789886" y="210.471227" style="fill: #2e4053; stroke: #2e4053"/>
    </g>
   </g>
   <g id="line2d_34">
    <path d="M 92.062614 127.732237 
L 98.211374 133.500509 
L 104.360134 147.275706 
L 110.508895 159.105651 
L 116.657655 165.695447 
L 122.806415 170.750754 
L 128.955176 173.884281 
L 135.103936 175.280872 
L 141.252696 176.824163 
L 147.401457 175.321948 
L 153.550217 171.680836 
L 159.698977 172.358593 
L 165.847738 178.534693 
L 171.996498 181.213448 
L 178.145258 180.2863 
L 184.294019 180.902443 
L 190.442779 169.093036 
L 196.591539 163.670977 
L 202.7403 162.245046 
L 208.88906 158.938412 
L 215.03782 156.432764 
L 221.186581 155.015635 
L 227.335341 156.104155 
L 233.484101 163.712053 
L 239.632862 173.869611 
L 245.781622 184.599301 
L 251.930382 183.504913 
L 258.079143 179.916614 
L 264.227903 182.076048 
L 270.376663 186.130856 
L 276.525424 190.989584 
L 282.674184 194.011618 
L 288.822944 195.590118 
L 294.971705 192.421383 
L 301.120465 186.617902 
L 307.269225 180.254026 
L 313.417986 174.418271 
L 319.566746 168.515035 
L 325.715506 160.01813 
L 331.864267 152.647886 
L 338.013027 148.314347 
L 344.161787 139.972944 
L 350.310548 133.790977 
L 356.459308 130.947917 
L 362.608068 131.769441 
L 368.756829 134.222277 
L 374.905589 139.972944 
L 381.054349 152.797521 
L 387.20311 163.541881 
L 393.35187 174.837835 
L 399.50063 185.244784 
L 405.649391 191.03066 
L 411.798151 199.897251 
L 417.946911 207.420063 
L 424.095672 221.104305 
L 430.244432 237.440897 
L 436.393192 241.202303 
L 442.541952 245.392075 
L 448.690713 251.729546 
L 454.839473 258.210783 
L 460.988233 260.575599 
L 467.136994 256.764314 
L 473.285754 248.877684 
L 479.434514 242.666376 
L 485.583275 232.975327 
L 491.732035 225.223661 
L 497.880795 216.222106 
L 504.029556 207.26456 
L 510.178316 197.990142 
L 516.327076 188.53088 
L 522.475837 181.17824 
L 528.624597 172.11507 
L 534.773357 154.871869 
L 540.922118 134.515678 
L 547.070878 121.767386 
L 553.219638 109.79074 
L 559.368399 103.491412 
L 565.517159 94.580811 
L 571.665919 92.500595 
L 577.81468 93.342657 
L 583.96344 92.923093 
L 590.1122 88.921097 
L 596.260961 88.932833 
L 602.409721 91.667334 
L 608.558481 92.524067 
L 614.707242 96.182782 
L 620.856002 105.768207 
L 627.004762 117.222598 
L 633.153523 122.935124 
L 639.302283 128.917579 
L 645.451043 129.516118 
L 651.599804 137.505439 
L 657.748564 139.987615 
L 663.897324 140.6419 
L 670.046085 142.543141 
L 676.194845 143.094736 
L 682.343605 145.770557 
L 688.492366 144.394504 
L 694.641126 143.637528 
L 700.789886 132.09805 
" clip-path="url(#pf9739d64fd)" style="fill: none; stroke-dasharray: 5.55,2.4; stroke-dashoffset: 0; stroke: #e67e22; stroke-width: 1.5"/>
    <defs>
     <path id="mdc6ec33eec" d="M -2.5 2.5 
L 2.5 -2.5 
M -2.5 -2.5 
L 2.5 2.5 
" style="stroke: #e67e22"/>
    </defs>
    <g clip-path="url(#pf9739d64fd)">
     <use xlink:href="#mdc6ec33eec" x="92.062614" y="127.732237" style="fill: #e67e22; stroke: #e67e22"/>
     <use xlink:href="#mdc6ec33eec" x="98.211374" y="133.500509" style="fill: #e67e22; stroke: #e67e22"/>
     <use xlink:href="#mdc6ec33eec" x="104.360134" y="147.275706" style="fill: #e67e22; stroke: #e67e22"/>
     <use xlink:href="#mdc6ec33eec" x="110.508895" y="159.105651" style="fill: #e67e22; stroke: #e67e22"/>
     <use xlink:href="#mdc6ec33eec" x="116.657655" y="165.695447" style="fill: #e67e22; stroke: #e67e22"/>
     <use xlink:href="#mdc6ec33eec" x="122.806415" y="170.750754" style="fill: #e67e22; stroke: #e67e22"/>
     <use xlink:href="#mdc6ec33eec" x="128.955176" y="173.884281" style="fill: #e67e22; stroke: #e67e22"/>
     <use xlink:href="#mdc6ec33eec" x="135.103936" y="175.280872" style="fill: #e67e22; stroke: #e67e22"/>
     <use xlink:href="#mdc6ec33eec" x="141.252696" y="176.824163" style="fill: #e67e22; stroke: #e67e22"/>
     <use xlink:href="#mdc6ec33eec" x="147.401457" y="175.321948" style="fill: #e67e22; stroke: #e67e22"/>
     <use xlink:href="#mdc6ec33eec" x="153.550217" y="171.680836" style="fill: #e67e22; stroke: #e67e22"/>
     <use xlink:href="#mdc6ec33eec" x="159.698977" y="172.358593" style="fill: #e67e22; stroke: #e67e22"/>
     <use xlink:href="#mdc6ec33eec" x="165.847738" y="178.534693" style="fill: #e67e22; stroke: #e67e22"/>
     <use xlink:href="#mdc6ec33eec" x="171.996498" y="181.213448" style="fill: #e67e22; stroke: #e67e22"/>
     <use xlink:href="#mdc6ec33eec" x="178.145258" y="180.2863" style="fill: #e67e22; stroke: #e67e22"/>
     <use xlink:href="#mdc6ec33eec" x="184.294019" y="180.902443" style="fill: #e67e22; stroke: #e67e22"/>
     <use xlink:href="#mdc6ec33eec" x="190.442779" y="169.093036" style="fill: #e67e22; stroke: #e67e22"/>
     <use xlink:href="#mdc6ec33eec" x="196.591539" y="163.670977" style="fill: #e67e22; stroke: #e67e22"/>
     <use xlink:href="#mdc6ec33eec" x="202.7403" y="162.245046" style="fill: #e67e22; stroke: #e67e22"/>
     <use xlink:href="#mdc6ec33eec" x="208.88906" y="158.938412" style="fill: #e67e22; stroke: #e67e22"/>
     <use xlink:href="#mdc6ec33eec" x="215.03782" y="156.432764" style="fill: #e67e22; stroke: #e67e22"/>
     <use xlink:href="#mdc6ec33eec" x="221.186581" y="155.015635" style="fill: #e67e22; stroke: #e67e22"/>
     <use xlink:href="#mdc6ec33eec" x="227.335341" y="156.104155" style="fill: #e67e22; stroke: #e67e22"/>
     <use xlink:href="#mdc6ec33eec" x="233.484101" y="163.712053" style="fill: #e67e22; stroke: #e67e22"/>
     <use xlink:href="#mdc6ec33eec" x="239.632862" y="173.869611" style="fill: #e67e22; stroke: #e67e22"/>
     <use xlink:href="#mdc6ec33eec" x="245.781622" y="184.599301" style="fill: #e67e22; stroke: #e67e22"/>
     <use xlink:href="#mdc6ec33eec" x="251.930382" y="183.504913" style="fill: #e67e22; stroke: #e67e22"/>
     <use xlink:href="#mdc6ec33eec" x="258.079143" y="179.916614" style="fill: #e67e22; stroke: #e67e22"/>
     <use xlink:href="#mdc6ec33eec" x="264.227903" y="182.076048" style="fill: #e67e22; stroke: #e67e22"/>
     <use xlink:href="#mdc6ec33eec" x="270.376663" y="186.130856" style="fill: #e67e22; stroke: #e67e22"/>
     <use xlink:href="#mdc6ec33eec" x="276.525424" y="190.989584" style="fill: #e67e22; stroke: #e67e22"/>
     <use xlink:href="#mdc6ec33eec" x="282.674184" y="194.011618" style="fill: #e67e22; stroke: #e67e22"/>
     <use xlink:href="#mdc6ec33eec" x="288.822944" y="195.590118" style="fill: #e67e22; stroke: #e67e22"/>
     <use xlink:href="#mdc6ec33eec" x="294.971705" y="192.421383" style="fill: #e67e22; stroke: #e67e22"/>
     <use xlink:href="#mdc6ec33eec" x="301.120465" y="186.617902" style="fill: #e67e22; stroke: #e67e22"/>
     <use xlink:href="#mdc6ec33eec" x="307.269225" y="180.254026" style="fill: #e67e22; stroke: #e67e22"/>
     <use xlink:href="#mdc6ec33eec" x="313.417986" y="174.418271" style="fill: #e67e22; stroke: #e67e22"/>
     <use xlink:href="#mdc6ec33eec" x="319.566746" y="168.515035" style="fill: #e67e22; stroke: #e67e22"/>
     <use xlink:href="#mdc6ec33eec" x="325.715506" y="160.01813" style="fill: #e67e22; stroke: #e67e22"/>
     <use xlink:href="#mdc6ec33eec" x="331.864267" y="152.647886" style="fill: #e67e22; stroke: #e67e22"/>
     <use xlink:href="#mdc6ec33eec" x="338.013027" y="148.314347" style="fill: #e67e22; stroke: #e67e22"/>
     <use xlink:href="#mdc6ec33eec" x="344.161787" y="139.972944" style="fill: #e67e22; stroke: #e67e22"/>
     <use xlink:href="#mdc6ec33eec" x="350.310548" y="133.790977" style="fill: #e67e22; stroke: #e67e22"/>
     <use xlink:href="#mdc6ec33eec" x="356.459308" y="130.947917" style="fill: #e67e22; stroke: #e67e22"/>
     <use xlink:href="#mdc6ec33eec" x="362.608068" y="131.769441" style="fill: #e67e22; stroke: #e67e22"/>
     <use xlink:href="#mdc6ec33eec" x="368.756829" y="134.222277" style="fill: #e67e22; stroke: #e67e22"/>
     <use xlink:href="#mdc6ec33eec" x="374.905589" y="139.972944" style="fill: #e67e22; stroke: #e67e22"/>
     <use xlink:href="#mdc6ec33eec" x="381.054349" y="152.797521" style="fill: #e67e22; stroke: #e67e22"/>
     <use xlink:href="#mdc6ec33eec" x="387.20311" y="163.541881" style="fill: #e67e22; stroke: #e67e22"/>
     <use xlink:href="#mdc6ec33eec" x="393.35187" y="174.837835" style="fill: #e67e22; stroke: #e67e22"/>
     <use xlink:href="#mdc6ec33eec" x="399.50063" y="185.244784" style="fill: #e67e22; stroke: #e67e22"/>
     <use xlink:href="#mdc6ec33eec" x="405.649391" y="191.03066" style="fill: #e67e22; stroke: #e67e22"/>
     <use xlink:href="#mdc6ec33eec" x="411.798151" y="199.897251" style="fill: #e67e22; stroke: #e67e22"/>
     <use xlink:href="#mdc6ec33eec" x="417.946911" y="207.420063" style="fill: #e67e22; stroke: #e67e22"/>
     <use xlink:href="#mdc6ec33eec" x="424.095672" y="221.104305" style="fill: #e67e22; stroke: #e67e22"/>
     <use xlink:href="#mdc6ec33eec" x="430.244432" y="237.440897" style="fill: #e67e22; stroke: #e67e22"/>
     <use xlink:href="#mdc6ec33eec" x="436.393192" y="241.202303" style="fill: #e67e22; stroke: #e67e22"/>
     <use xlink:href="#mdc6ec33eec" x="442.541952" y="245.392075" style="fill: #e67e22; stroke: #e67e22"/>
     <use xlink:href="#mdc6ec33eec" x="448.690713" y="251.729546" style="fill: #e67e22; stroke: #e67e22"/>
     <use xlink:href="#mdc6ec33eec" x="454.839473" y="258.210783" style="fill: #e67e22; stroke: #e67e22"/>
     <use xlink:href="#mdc6ec33eec" x="460.988233" y="260.575599" style="fill: #e67e22; stroke: #e67e22"/>
     <use xlink:href="#mdc6ec33eec" x="467.136994" y="256.764314" style="fill: #e67e22; stroke: #e67e22"/>
     <use xlink:href="#mdc6ec33eec" x="473.285754" y="248.877684" style="fill: #e67e22; stroke: #e67e22"/>
     <use xlink:href="#mdc6ec33eec" x="479.434514" y="242.666376" style="fill: #e67e22; stroke: #e67e22"/>
     <use xlink:href="#mdc6ec33eec" x="485.583275" y="232.975327" style="fill: #e67e22; stroke: #e67e22"/>
     <use xlink:href="#mdc6ec33eec" x="491.732035" y="225.223661" style="fill: #e67e22; stroke: #e67e22"/>
     <use xlink:href="#mdc6ec33eec" x="497.880795" y="216.222106" style="fill: #e67e22; stroke: #e67e22"/>
     <use xlink:href="#mdc6ec33eec" x="504.029556" y="207.26456" style="fill: #e67e22; stroke: #e67e22"/>
     <use xlink:href="#mdc6ec33eec" x="510.178316" y="197.990142" style="fill: #e67e22; stroke: #e67e22"/>
     <use xlink:href="#mdc6ec33eec" x="516.327076" y="188.53088" style="fill: #e67e22; stroke: #e67e22"/>
     <use xlink:href="#mdc6ec33eec" x="522.475837" y="181.17824" style="fill: #e67e22; stroke: #e67e22"/>
     <use xlink:href="#mdc6ec33eec" x="528.624597" y="172.11507" style="fill: #e67e22; stroke: #e67e22"/>
     <use xlink:href="#mdc6ec33eec" x="534.773357" y="154.871869" style="fill: #e67e22; stroke: #e67e22"/>
     <use xlink:href="#mdc6ec33eec" x="540.922118" y="134.515678" style="fill: #e67e22; stroke: #e67e22"/>
     <use xlink:href="#mdc6ec33eec" x="547.070878" y="121.767386" style="fill: #e67e22; stroke: #e67e22"/>
     <use xlink:href="#mdc6ec33eec" x="553.219638" y="109.79074" style="fill: #e67e22; stroke: #e67e22"/>
     <use xlink:href="#mdc6ec33eec" x="559.368399" y="103.491412" style="fill: #e67e22; stroke: #e67e22"/>
     <use xlink:href="#mdc6ec33eec" x="565.517159" y="94.580811" style="fill: #e67e22; stroke: #e67e22"/>
     <use xlink:href="#mdc6ec33eec" x="571.665919" y="92.500595" style="fill: #e67e22; stroke: #e67e22"/>
     <use xlink:href="#mdc6ec33eec" x="577.81468" y="93.342657" style="fill: #e67e22; stroke: #e67e22"/>
     <use xlink:href="#mdc6ec33eec" x="583.96344" y="92.923093" style="fill: #e67e22; stroke: #e67e22"/>
     <use xlink:href="#mdc6ec33eec" x="590.1122" y="88.921097" style="fill: #e67e22; stroke: #e67e22"/>
     <use xlink:href="#mdc6ec33eec" x="596.260961" y="88.932833" style="fill: #e67e22; stroke: #e67e22"/>
     <use xlink:href="#mdc6ec33eec" x="602.409721" y="91.667334" style="fill: #e67e22; stroke: #e67e22"/>
     <use xlink:href="#mdc6ec33eec" x="608.558481" y="92.524067" style="fill: #e67e22; stroke: #e67e22"/>
     <use xlink:href="#mdc6ec33eec" x="614.707242" y="96.182782" style="fill: #e67e22; stroke: #e67e22"/>
     <use xlink:href="#mdc6ec33eec" x="620.856002" y="105.768207" style="fill: #e67e22; stroke: #e67e22"/>
     <use xlink:href="#mdc6ec33eec" x="627.004762" y="117.222598" style="fill: #e67e22; stroke: #e67e22"/>
     <use xlink:href="#mdc6ec33eec" x="633.153523" y="122.935124" style="fill: #e67e22; stroke: #e67e22"/>
     <use xlink:href="#mdc6ec33eec" x="639.302283" y="128.917579" style="fill: #e67e22; stroke: #e67e22"/>
     <use xlink:href="#mdc6ec33eec" x="645.451043" y="129.516118" style="fill: #e67e22; stroke: #e67e22"/>
     <use xlink:href="#mdc6ec33eec" x="651.599804" y="137.505439" style="fill: #e67e22; stroke: #e67e22"/>
     <use xlink:href="#mdc6ec33eec" x="657.748564" y="139.987615" style="fill: #e67e22; stroke: #e67e22"/>
     <use xlink:href="#mdc6ec33eec" x="663.897324" y="140.6419" style="fill: #e67e22; stroke: #e67e22"/>
     <use xlink:href="#mdc6ec33eec" x="670.046085" y="142.543141" style="fill: #e67e22; stroke: #e67e22"/>
     <use xlink:href="#mdc6ec33eec" x="676.194845" y="143.094736" style="fill: #e67e22; stroke: #e67e22"/>
     <use xlink:href="#mdc6ec33eec" x="682.343605" y="145.770557" style="fill: #e67e22; stroke: #e67e22"/>
     <use xlink:href="#mdc6ec33eec" x="688.492366" y="144.394504" style="fill: #e67e22; stroke: #e67e22"/>
     <use xlink:href="#mdc6ec33eec" x="694.641126" y="143.637528" style="fill: #e67e22; stroke: #e67e22"/>
     <use xlink:href="#mdc6ec33eec" x="700.789886" y="132.09805" style="fill: #e67e22; stroke: #e67e22"/>
    </g>
   </g>
   <g id="patch_3">
    <path d="M 61.62625 317.597813 
L 61.62625 23.837813 
" style="fill: none; stroke: #000000; stroke-width: 0.8; stroke-linejoin: miter; stroke-linecap: square"/>
   </g>
   <g id="patch_4">
    <path d="M 731.22625 317.597813 
L 731.22625 23.837813 
" style="fill: none; stroke: #000000; stroke-width: 0.8; stroke-linejoin: miter; stroke-linecap: square"/>
   </g>
   <g id="patch_5">
    <path d="M 61.62625 317.597812 
L 731.22625 317.597812 
" style="fill: none; stroke: #000000; stroke-width: 0.8; stroke-linejoin: miter; stroke-linecap: square"/>
   </g>
   <g id="patch_6">
    <path d="M 61.62625 23.837812 
L 731.22625 23.837812 
" style="fill: none; stroke: #000000; stroke-width: 0.8; stroke-linejoin: miter; stroke-linecap: square"/>
   </g>
   <g id="text_19">
    <!-- Best Match Zoom (Window 100 pts, MAE: 54.06) -->
    <g transform="translate(222.477344 17.837812) scale(0.14 -0.14)">
     <defs>
      <path id="DejaVuSerif-42" d="M 1581 331 
L 2516 331 
Q 3078 331 3337 575 
Q 3597 819 3597 1350 
Q 3597 1878 3339 2120 
Q 3081 2363 2516 2363 
L 1581 2363 
L 1581 331 
z
M 1581 2694 
L 2375 2694 
Q 2888 2694 3123 2891 
Q 3359 3088 3359 3513 
Q 3359 3941 3123 4136 
Q 2888 4331 2375 4331 
L 1581 4331 
L 1581 2694 
z
M 353 0 
L 353 331 
L 947 331 
L 947 4331 
L 353 4331 
L 353 4666 
L 2656 4666 
Q 3363 4666 3720 4377 
Q 4078 4088 4078 3513 
Q 4078 3097 3829 2850 
Q 3581 2603 3103 2547 
Q 3697 2472 4005 2167 
Q 4313 1863 4313 1350 
Q 4313 656 3875 328 
Q 3438 0 2509 0 
L 353 0 
z
" transform="scale(0.015625)"/>
      <path id="DejaVuSerif-73" d="M 359 184 
L 359 959 
L 691 959 
Q 703 588 923 403 
Q 1144 219 1575 219 
Q 1963 219 2166 364 
Q 2369 509 2369 788 
Q 2369 1006 2220 1140 
Q 2072 1275 1594 1428 
L 1178 1569 
Q 750 1706 558 1912 
Q 366 2119 366 2438 
Q 366 2894 700 3153 
Q 1034 3413 1625 3413 
Q 1888 3413 2178 3344 
Q 2469 3275 2778 3144 
L 2778 2419 
L 2447 2419 
Q 2434 2741 2221 2922 
Q 2009 3103 1644 3103 
Q 1281 3103 1095 2975 
Q 909 2847 909 2591 
Q 909 2381 1050 2254 
Q 1191 2128 1613 1997 
L 2069 1856 
Q 2541 1709 2748 1489 
Q 2956 1269 2956 922 
Q 2956 450 2595 179 
Q 2234 -91 1600 -91 
Q 1278 -91 972 -22 
Q 666 47 359 184 
z
" transform="scale(0.015625)"/>
      <path id="DejaVuSerif-74" d="M 691 2988 
L 184 2988 
L 184 3322 
L 691 3322 
L 691 4353 
L 1269 4353 
L 1269 3322 
L 2350 3322 
L 2350 2988 
L 1269 2988 
L 1269 878 
Q 1269 456 1350 337 
Q 1431 219 1650 219 
Q 1875 219 1978 351 
Q 2081 484 2088 781 
L 2522 781 
Q 2497 328 2275 118 
Q 2053 -91 1600 -91 
Q 1103 -91 897 129 
Q 691 350 691 878 
L 691 2988 
z
" transform="scale(0.015625)"/>
      <path id="DejaVuSerif-4d" d="M 353 0 
L 353 331 
L 947 331 
L 947 4331 
L 319 4331 
L 319 4666 
L 1678 4666 
L 3316 1344 
L 4953 4666 
L 6228 4666 
L 6228 4331 
L 5606 4331 
L 5606 331 
L 6203 331 
L 6203 0 
L 4378 0 
L 4378 331 
L 4972 331 
L 4972 3938 
L 3372 684 
L 2931 684 
L 1331 3938 
L 1331 331 
L 1925 331 
L 1925 0 
L 353 0 
z
" transform="scale(0.015625)"/>
      <path id="DejaVuSerif-5a" d="M 288 0 
L 288 225 
L 3194 4281 
L 781 4281 
L 781 3584 
L 397 3584 
L 397 4666 
L 4084 4666 
L 4084 4441 
L 1178 384 
L 3816 384 
L 3816 1038 
L 4197 1038 
L 4197 0 
L 288 0 
z
" transform="scale(0.015625)"/>
      <path id="DejaVuSerif-6f" d="M 1925 219 
Q 2388 219 2623 584 
Q 2859 950 2859 1663 
Q 2859 2375 2623 2739 
Q 2388 3103 1925 3103 
Q 1463 3103 1227 2739 
Q 991 2375 991 1663 
Q 991 950 1228 584 
Q 1466 219 1925 219 
z
M 1925 -91 
Q 1200 -91 759 389 
Q 319 869 319 1663 
Q 319 2456 758 2934 
Q 1197 3413 1925 3413 
Q 2653 3413 3092 2934 
Q 3531 2456 3531 1663 
Q 3531 869 3092 389 
Q 2653 -91 1925 -91 
z
" transform="scale(0.015625)"/>
      <path id="DejaVuSerif-6d" d="M 3316 2675 
Q 3481 3041 3739 3227 
Q 3997 3413 4341 3413 
Q 4863 3413 5119 3089 
Q 5375 2766 5375 2113 
L 5375 331 
L 5894 331 
L 5894 0 
L 4300 0 
L 4300 331 
L 4800 331 
L 4800 2047 
Q 4800 2556 4650 2772 
Q 4500 2988 4153 2988 
Q 3769 2988 3567 2697 
Q 3366 2406 3366 1850 
L 3366 331 
L 3866 331 
L 3866 0 
L 2291 0 
L 2291 331 
L 2791 331 
L 2791 2069 
Q 2791 2566 2641 2777 
Q 2491 2988 2144 2988 
Q 1759 2988 1557 2697 
Q 1356 2406 1356 1850 
L 1356 331 
L 1856 331 
L 1856 0 
L 263 0 
L 263 331 
L 781 331 
L 781 2994 
L 231 2994 
L 231 3322 
L 1356 3322 
L 1356 2731 
Q 1516 3063 1762 3238 
Q 2009 3413 2322 3413 
Q 2709 3413 2968 3220 
Q 3228 3028 3316 2675 
z
" transform="scale(0.015625)"/>
      <path id="DejaVuSerif-57" d="M 4878 0 
L 4366 0 
L 3297 3794 
L 2228 0 
L 1716 0 
L 494 4331 
L 31 4331 
L 31 4666 
L 1734 4666 
L 1734 4331 
L 1153 4331 
L 2125 884 
L 3188 4666 
L 3694 4666 
L 4775 844 
L 5753 4331 
L 5216 4331 
L 5216 4666 
L 6559 4666 
L 6559 4331 
L 6100 4331 
L 4878 0 
z
" transform="scale(0.015625)"/>
      <path id="DejaVuSerif-6e" d="M 263 0 
L 263 331 
L 781 331 
L 781 2988 
L 231 2988 
L 231 3322 
L 1356 3322 
L 1356 2731 
Q 1516 3069 1770 3241 
Q 2025 3413 2363 3413 
Q 2913 3413 3172 3097 
Q 3431 2781 3431 2113 
L 3431 331 
L 3944 331 
L 3944 0 
L 2356 0 
L 2356 331 
L 2853 331 
L 2853 1931 
Q 2853 2541 2703 2767 
Q 2553 2994 2175 2994 
Q 1775 2994 1565 2701 
Q 1356 2409 1356 1850 
L 1356 331 
L 1856 331 
L 1856 0 
L 263 0 
z
" transform="scale(0.015625)"/>
      <path id="DejaVuSerif-64" d="M 3359 331 
L 3909 331 
L 3909 0 
L 2784 0 
L 2784 519 
Q 2616 206 2355 57 
Q 2094 -91 1709 -91 
Q 1097 -91 708 395 
Q 319 881 319 1663 
Q 319 2444 706 2928 
Q 1094 3413 1709 3413 
Q 2094 3413 2355 3264 
Q 2616 3116 2784 2803 
L 2784 4531 
L 2241 4531 
L 2241 4863 
L 3359 4863 
L 3359 331 
z
M 2784 1497 
L 2784 1825 
Q 2784 2422 2554 2737 
Q 2325 3053 1888 3053 
Q 1444 3053 1217 2703 
Q 991 2353 991 1663 
Q 991 975 1217 622 
Q 1444 269 1888 269 
Q 2325 269 2554 583 
Q 2784 897 2784 1497 
z
" transform="scale(0.015625)"/>
      <path id="DejaVuSerif-77" d="M 3072 3322 
L 3922 728 
L 4672 2988 
L 4191 2988 
L 4191 3322 
L 5394 3322 
L 5394 2988 
L 5025 2988 
L 4038 0 
L 3559 0 
L 2741 2484 
L 1919 0 
L 1459 0 
L 475 2988 
L 103 2988 
L 103 3322 
L 1606 3322 
L 1606 2988 
L 1069 2988 
L 1813 728 
L 2669 3322 
L 3072 3322 
z
" transform="scale(0.015625)"/>
      <path id="DejaVuSerif-70" d="M 1313 1825 
L 1313 1497 
Q 1313 897 1542 583 
Q 1772 269 2209 269 
Q 2650 269 2876 622 
Q 3103 975 3103 1663 
Q 3103 2353 2876 2703 
Q 2650 3053 2209 3053 
Q 1772 3053 1542 2737 
Q 1313 2422 1313 1825 
z
M 738 2988 
L 184 2988 
L 184 3322 
L 1313 3322 
L 1313 2803 
Q 1481 3116 1742 3264 
Q 2003 3413 2388 3413 
Q 3000 3413 3387 2928 
Q 3775 2444 3775 1663 
Q 3775 881 3387 395 
Q 3000 -91 2388 -91 
Q 2003 -91 1742 57 
Q 1481 206 1313 519 
L 1313 -997 
L 1856 -997 
L 1856 -1331 
L 184 -1331 
L 184 -997 
L 738 -997 
L 738 2988 
z
" transform="scale(0.015625)"/>
      <path id="DejaVuSerif-2c" d="M 231 -622 
Q 525 -406 662 -114 
Q 800 178 800 594 
L 800 709 
L 1416 709 
Q 1391 175 1164 -208 
Q 938 -591 481 -872 
L 231 -622 
z
" transform="scale(0.015625)"/>
      <path id="DejaVuSerif-41" d="M 1281 1691 
L 2994 1691 
L 2138 3909 
L 1281 1691 
z
M -38 0 
L -38 331 
L 372 331 
L 2034 4666 
L 2559 4666 
L 4225 331 
L 4684 331 
L 4684 0 
L 2988 0 
L 2988 331 
L 3506 331 
L 3116 1356 
L 1153 1356 
L 763 331 
L 1275 331 
L 1275 0 
L -38 0 
z
" transform="scale(0.015625)"/>
      <path id="DejaVuSerif-45" d="M 353 0 
L 353 331 
L 947 331 
L 947 4331 
L 353 4331 
L 353 4666 
L 4109 4666 
L 4109 3628 
L 3725 3628 
L 3725 4281 
L 1581 4281 
L 1581 2719 
L 3109 2719 
L 3109 3303 
L 3494 3303 
L 3494 1753 
L 3109 1753 
L 3109 2338 
L 1581 2338 
L 1581 384 
L 3775 384 
L 3775 1038 
L 4159 1038 
L 4159 0 
L 353 0 
z
" transform="scale(0.015625)"/>
      <path id="DejaVuSerif-3a" d="M 666 325 
Q 666 500 786 622 
Q 906 744 1081 744 
Q 1256 744 1376 622 
Q 1497 500 1497 325 
Q 1497 150 1378 29 
Q 1259 -91 1081 -91 
Q 903 -91 784 29 
Q 666 150 666 325 
z
M 666 2363 
Q 666 2538 786 2658 
Q 906 2778 1081 2778 
Q 1259 2778 1378 2659 
Q 1497 2541 1497 2363 
Q 1497 2184 1378 2065 
Q 1259 1947 1081 1947 
Q 906 1947 786 2067 
Q 666 2188 666 2363 
z
" transform="scale(0.015625)"/>
      <path id="DejaVuSerif-2e" d="M 603 325 
Q 603 500 722 622 
Q 841 744 1019 744 
Q 1191 744 1312 622 
Q 1434 500 1434 325 
Q 1434 153 1312 31 
Q 1191 -91 1019 -91 
Q 841 -91 722 29 
Q 603 150 603 325 
z
" transform="scale(0.015625)"/>
     </defs>
     <use xlink:href="#DejaVuSerif-42"/>
     <use xlink:href="#DejaVuSerif-65" x="73.486328"/>
     <use xlink:href="#DejaVuSerif-73" x="132.666016"/>
     <use xlink:href="#DejaVuSerif-74" x="183.984375"/>
     <use xlink:href="#DejaVuSerif-20" x="224.169922"/>
     <use xlink:href="#DejaVuSerif-4d" x="255.957031"/>
     <use xlink:href="#DejaVuSerif-61" x="358.349609"/>
     <use xlink:href="#DejaVuSerif-74" x="417.96875"/>
     <use xlink:href="#DejaVuSerif-63" x="458.154297"/>
     <use xlink:href="#DejaVuSerif-68" x="514.160156"/>
     <use xlink:href="#DejaVuSerif-20" x="578.564453"/>
     <use xlink:href="#DejaVuSerif-5a" x="610.351562"/>
     <use xlink:href="#DejaVuSerif-6f" x="679.833984"/>
     <use xlink:href="#DejaVuSerif-6f" x="740.039062"/>
     <use xlink:href="#DejaVuSerif-6d" x="800.244141"/>
     <use xlink:href="#DejaVuSerif-20" x="895.068359"/>
     <use xlink:href="#DejaVuSerif-28" x="926.855469"/>
     <use xlink:href="#DejaVuSerif-57" x="965.869141"/>
     <use xlink:href="#DejaVuSerif-69" x="1066.902344"/>
     <use xlink:href="#DejaVuSerif-6e" x="1098.884766"/>
     <use xlink:href="#DejaVuSerif-64" x="1163.289062"/>
     <use xlink:href="#DejaVuSerif-6f" x="1227.302734"/>
     <use xlink:href="#DejaVuSerif-77" x="1287.507812"/>
     <use xlink:href="#DejaVuSerif-20" x="1373.103516"/>
     <use xlink:href="#DejaVuSerif-31" x="1404.890625"/>
     <use xlink:href="#DejaVuSerif-30" x="1468.513672"/>
     <use xlink:href="#DejaVuSerif-30" x="1532.136719"/>
     <use xlink:href="#DejaVuSerif-20" x="1595.759766"/>
     <use xlink:href="#DejaVuSerif-70" x="1627.546875"/>
     <use xlink:href="#DejaVuSerif-74" x="1691.560547"/>
     <use xlink:href="#DejaVuSerif-73" x="1731.746094"/>
     <use xlink:href="#DejaVuSerif-2c" x="1783.064453"/>
     <use xlink:href="#DejaVuSerif-20" x="1814.851562"/>
     <use xlink:href="#DejaVuSerif-4d" x="1846.638672"/>
     <use xlink:href="#DejaVuSerif-41" x="1949.03125"/>
     <use xlink:href="#DejaVuSerif-45" x="2021.248047"/>
     <use xlink:href="#DejaVuSerif-3a" x="2094.246094"/>
     <use xlink:href="#DejaVuSerif-20" x="2127.9375"/>
     <use xlink:href="#DejaVuSerif-35" x="2159.724609"/>
     <use xlink:href="#DejaVuSerif-34" x="2223.347656"/>
     <use xlink:href="#DejaVuSerif-2e" x="2286.970703"/>
     <use xlink:href="#DejaVuSerif-30" x="2318.757812"/>
     <use xlink:href="#DejaVuSerif-36" x="2382.380859"/>
     <use xlink:href="#DejaVuSerif-29" x="2446.003906"/>
    </g>
   </g>
   <g id="legend_1">
    <g id="patch_7">
     <path d="M 68.62625 61.194062 
L 154.512188 61.194062 
Q 156.512188 61.194062 156.512188 59.194062 
L 156.512188 30.837812 
Q 156.512188 28.837812 154.512188 28.837812 
L 68.62625 28.837812 
Q 66.62625 28.837812 66.62625 30.837812 
L 66.62625 59.194062 
Q 66.62625 61.194062 68.62625 61.194062 
z
" style="fill: #ffffff; opacity: 0.8; stroke: #cccccc; stroke-linejoin: miter"/>
    </g>
    <g id="line2d_35">
     <path d="M 70.62625 36.93625 
L 80.62625 36.93625 
L 90.62625 36.93625 
" style="fill: none; stroke: #2e4053; stroke-width: 1.5; stroke-linecap: square"/>
     <g>
      <use xlink:href="#m596b9a6ec5" x="80.62625" y="36.93625" style="fill: #2e4053; stroke: #2e4053"/>
     </g>
    </g>
    <g id="text_20">
     <!-- Real -->
     <g transform="translate(98.62625 40.43625) scale(0.1 -0.1)">
      <defs>
       <path id="DejaVuSerif-52" d="M 3066 2316 
Q 3284 2256 3442 2114 
Q 3600 1972 3725 1716 
L 4403 331 
L 4972 331 
L 4972 0 
L 3872 0 
L 3144 1484 
Q 2934 1916 2759 2042 
Q 2584 2169 2278 2169 
L 1581 2169 
L 1581 331 
L 2241 331 
L 2241 0 
L 353 0 
L 353 331 
L 947 331 
L 947 4331 
L 353 4331 
L 353 4666 
L 2719 4666 
Q 3400 4666 3770 4341 
Q 4141 4016 4141 3419 
Q 4141 2938 3870 2661 
Q 3600 2384 3066 2316 
z
M 1581 2503 
L 2503 2503 
Q 2975 2503 3200 2726 
Q 3425 2950 3425 3419 
Q 3425 3888 3200 4109 
Q 2975 4331 2503 4331 
L 1581 4331 
L 1581 2503 
z
" transform="scale(0.015625)"/>
       <path id="DejaVuSerif-6c" d="M 1313 331 
L 1856 331 
L 1856 0 
L 184 0 
L 184 331 
L 738 331 
L 738 4531 
L 184 4531 
L 184 4863 
L 1313 4863 
L 1313 331 
z
" transform="scale(0.015625)"/>
      </defs>
      <use xlink:href="#DejaVuSerif-52"/>
      <use xlink:href="#DejaVuSerif-65" x="75.292969"/>
      <use xlink:href="#DejaVuSerif-61" x="134.472656"/>
      <use xlink:href="#DejaVuSerif-6c" x="194.091797"/>
     </g>
    </g>
    <g id="line2d_36">
     <path d="M 70.62625 51.614375 
L 80.62625 51.614375 
L 90.62625 51.614375 
" style="fill: none; stroke-dasharray: 5.55,2.4; stroke-dashoffset: 0; stroke: #e67e22; stroke-width: 1.5"/>
     <g>
      <use xlink:href="#mdc6ec33eec" x="80.62625" y="51.614375" style="fill: #e67e22; stroke: #e67e22"/>
     </g>
    </g>
    <g id="text_21">
     <!-- Predicción -->
     <g transform="translate(98.62625 55.114375) scale(0.1 -0.1)">
      <defs>
       <path id="DejaVuSerif-f3" d="M 1925 219 
Q 2388 219 2623 584 
Q 2859 950 2859 1663 
Q 2859 2375 2623 2739 
Q 2388 3103 1925 3103 
Q 1463 3103 1227 2739 
Q 991 2375 991 1663 
Q 991 950 1228 584 
Q 1466 219 1925 219 
z
M 1925 -91 
Q 1200 -91 759 389 
Q 319 869 319 1663 
Q 319 2456 758 2934 
Q 1197 3413 1925 3413 
Q 2653 3413 3092 2934 
Q 3531 2456 3531 1663 
Q 3531 869 3092 389 
Q 2653 -91 1925 -91 
z
M 2362 5119 
L 2984 5119 
L 1922 3944 
L 1556 3944 
L 2362 5119 
z
" transform="scale(0.015625)"/>
      </defs>
      <use xlink:href="#DejaVuSerif-50"/>
      <use xlink:href="#DejaVuSerif-72" x="67.285156"/>
      <use xlink:href="#DejaVuSerif-65" x="115.087891"/>
      <use xlink:href="#DejaVuSerif-64" x="174.267578"/>
      <use xlink:href="#DejaVuSerif-69" x="238.28125"/>
      <use xlink:href="#DejaVuSerif-63" x="270.263672"/>
      <use xlink:href="#DejaVuSerif-63" x="326.269531"/>
      <use xlink:href="#DejaVuSerif-69" x="382.275391"/>
      <use xlink:href="#DejaVuSerif-f3" x="414.257812"/>
      <use xlink:href="#DejaVuSerif-6e" x="474.462891"/>
     </g>
    </g>
   </g>
  </g>
 </g>
 <defs>
  <clipPath id="pf9739d64fd">
   <rect x="61.62625" y="23.837812" width="669.6" height="293.76"/>
  </clipPath>
 </defs>
</svg>
